<?xml version="1.0" encoding="UTF-8"?>
<svg version="1.1" xmlns="http://www.w3.org/2000/svg" width="1024" height="1024">
<path d="M0 0 C337.92 0 675.84 0 1024 0 C1024 337.92 1024 675.84 1024 1024 C686.08 1024 348.16 1024 0 1024 C0 686.08 0 348.16 0 0 Z " fill="#5865F2" transform="translate(0,0)"/>
<path d="M0 0 C1.0076952 1.7664657 2.00591714 3.53833823 3 5.3125 C3.556875 6.29863281 4.11375 7.28476562 4.6875 8.30078125 C6 11 6 11 6 14 C6.66 14 7.32 14 8 14 C8.84026396 15.76755526 9.67198722 17.53917263 10.5 19.3125 C10.9640625 20.29863281 11.428125 21.28476562 11.90625 22.30078125 C13 25 13 25 13 28 C13.62261719 27.87882812 14.24523437 27.75765625 14.88671875 27.6328125 C33.22174185 24.30847079 51.55042676 23.69659613 70.14892578 23.79418945 C73.75951181 23.81254837 77.36984061 23.81469745 80.98046875 23.81445312 C97.4557465 23.83914999 113.76627608 23.89399602 130 27 C131.99929881 27.33751352 133.99913589 27.67189344 136 28 C136.103125 27.278125 136.20625 26.55625 136.3125 25.8125 C137.07124657 22.70853676 138.322665 20.70954115 140 18 C140.71127031 16.3511461 141.42105238 14.70153337 142.109375 13.04296875 C146.86440678 2.13559322 146.86440678 2.13559322 149 0 C155.6871263 -0.33766677 161.41779738 0.52683243 167.875 2.1875 C168.78701172 2.41453613 169.69902344 2.64157227 170.63867188 2.87548828 C172.51919533 3.34626985 174.39844247 3.8221795 176.27636719 4.30322266 C178.79837118 4.94841801 181.32407246 5.57593783 183.8515625 6.19921875 C194.13186703 8.77574156 204.14571176 11.94331355 214.171875 15.37109375 C218.1323639 16.72238293 222.10907801 17.94972425 226.125 19.125 C231.09159941 20.62459259 235.69287202 22.55197188 240.375 24.77734375 C243.66683027 26.31059207 247.02457574 27.62054805 250.41796875 28.91015625 C251.27003906 29.26980469 252.12210938 29.62945312 253 30 C253.60827637 30.21841553 254.21655273 30.43683105 254.84326172 30.66186523 C261.45700853 33.38493945 264.19168165 37.93623436 267.75 43.9375 C268.34707764 44.91098389 268.94415527 45.88446777 269.55932617 46.88745117 C271.39974787 49.90979954 273.20541529 52.95024333 275 56 C275.5480127 56.92780273 276.09602539 57.85560547 276.66064453 58.81152344 C280.19449206 64.82653698 283.62693535 70.89354744 287 77 C287.41088867 77.74056641 287.82177734 78.48113281 288.24511719 79.24414062 C294.07977817 89.81675796 299.17134011 100.65908908 304.00390625 111.72265625 C304.88912684 113.74651352 305.78591022 115.76465064 306.6875 117.78125 C310.23288528 125.83222908 313.26656869 134.01648944 316.09472656 142.33984375 C316.75635628 144.28405017 317.42308279 146.2265242 318.09277344 148.16796875 C326.50002297 172.56220477 326.50002297 172.56220477 328.45703125 183.1484375 C329.00671248 186.03525257 329.74757688 188.80258333 330.5625 191.625 C331.89302326 196.34732347 332.7294632 201.0484212 333.47265625 205.89453125 C333.99582065 208.97538827 334.70218323 211.96348462 335.4375 215 C341.34665737 242.23611622 341.06451521 270.66869595 341.17422485 298.40100098 C341.18295973 300.52235225 341.19442053 302.64369434 341.20883179 304.76501465 C341.24926693 311.51400741 341.20674612 318.25377054 341 325 C340.96283875 326.21692535 340.96283875 326.21692535 340.92492676 327.45843506 C340.44099835 338.93285487 340.44099835 338.93285487 337.40600586 343.28662109 C335.33293655 345.14124345 333.28647238 346.49256861 330.875 347.875 C330.06458252 348.39634521 329.25416504 348.91769043 328.41918945 349.45483398 C325.97180052 351.01643295 323.48971909 352.50718166 321 354 C319.6584705 354.86184828 318.32091582 355.72992952 316.98828125 356.60546875 C301.32186905 366.80890708 284.87057598 375.95371296 268 384 C267.29891113 384.33483398 266.59782227 384.66966797 265.87548828 385.01464844 C262.25946835 386.73656269 258.6364265 388.44208171 255.00390625 390.12890625 C252.57882166 391.25534918 250.1759497 392.40653148 247.77734375 393.58984375 C240.2542625 397.24945876 232.55912204 399.94403856 224.59667969 402.46508789 C220.31756025 403.83115184 216.23990721 405.29805387 212.171875 407.2109375 C206.28199422 409.86616365 206.28199422 409.86616365 203 409 C201.04296875 406.83203125 201.04296875 406.83203125 199.1875 403.8125 C198.49914062 402.71164062 197.81078125 401.61078125 197.1015625 400.4765625 C196.40087556 399.31780876 195.70035262 398.15895583 195 397 C194.34773438 395.95585938 193.69546875 394.91171875 193.0234375 393.8359375 C191.35770802 391.16147942 189.7139335 388.47526711 188.08251953 385.77978516 C186.89671884 383.83019403 185.69660728 381.88978115 184.49609375 379.94921875 C183.66370477 378.59136507 182.83166685 377.2332961 182 375.875 C181.40264038 374.91533325 181.40264038 374.91533325 180.79321289 373.9362793 C178 369.34095378 178 369.34095378 178 366 C177.34 366 176.68 366 176 366 C176 364.35 176 362.7 176 361 C177.12921875 360.5978125 177.12921875 360.5978125 178.28125 360.1875 C191.09639409 355.45958276 203.08987298 349.36203938 214.7421875 342.25 C217 341 217 341 219 341 C219 340.01 219 339.02 219 338 C218.236875 337.731875 217.47375 337.46375 216.6875 337.1875 C214 336 214 336 212.5 334.375 C211.06101972 332.78078896 211.06101972 332.78078896 208.76171875 332.7734375 C205.54282955 333.03750479 203.26224113 333.9425046 200.3125 335.25 C198.71921875 335.94029297 198.71921875 335.94029297 197.09375 336.64453125 C196.0728125 337.09183594 195.051875 337.53914063 194 338 C187.17279352 340.87053 180.23102094 343.37091479 173.23950195 345.80639648 C172.54945068 346.04688721 171.85939941 346.28737793 171.1484375 346.53515625 C170.45854736 346.77516357 169.76865723 347.0151709 169.05786133 347.26245117 C167.0333837 347.9880351 165.03665161 348.76828857 163.03515625 349.5546875 C158.79323609 351.15581463 154.49417392 352.1381251 150.0625 353.0625 C149.31548828 353.22298828 148.56847656 353.38347656 147.79882812 353.54882812 C146.28677249 353.87367873 144.77406881 354.19552708 143.26074219 354.5144043 C141.02852404 354.99387318 138.80621036 355.50814479 136.58203125 356.0234375 C131.63052384 357.12681802 126.64751617 357.86451797 121.625 358.5625 C120.75617188 358.68818359 119.88734375 358.81386719 118.9921875 358.94335938 C108.54190506 360.41969365 98.22248886 361.16148689 87.66796875 361.203125 C85.93840691 361.21167511 85.93840691 361.21167511 84.17390442 361.22039795 C81.74265442 361.22979226 79.31139201 361.23635959 76.88012695 361.24023438 C73.23560163 361.24987279 69.59165751 361.28092333 65.94726562 361.3125 C46.29737711 361.40264975 27.60589398 359.3259127 8.4375 355.0625 C7.31021484 354.82337891 6.18292969 354.58425781 5.02148438 354.33789062 C-2.79833535 352.63558639 -10.37746074 350.42478717 -18 348 C-20.10318647 347.37170944 -22.20724204 346.74631415 -24.3125 346.125 C-35.07548706 342.80630387 -45.64419516 338.94700501 -55.66796875 333.78515625 C-58.55663863 332.812589 -60.11203016 333.10454182 -63 334 C-66.31180732 335.7628112 -66.31180732 335.7628112 -69 338 C-69 338.99 -69 339.98 -69 341 C-58.42840455 347.38076923 -47.58063612 352.55482381 -36.16821289 357.28051758 C-35.1239917 357.72161865 -34.07977051 358.16271973 -33.00390625 358.6171875 C-32.06361572 359.00503418 -31.1233252 359.39288086 -30.15454102 359.79248047 C-28 361 -28 361 -27 364 C-28.06305905 366.53403611 -29.18949828 368.84560381 -30.5 371.25 C-30.89147217 371.97928711 -31.28294434 372.70857422 -31.6862793 373.45996094 C-38.45861606 385.7705131 -46.10578019 398.10812847 -55 409 C-64.12698467 407.67511513 -72.17794007 404.34146758 -80.67626953 400.92138672 C-84.28279692 399.49135579 -87.92272486 398.15501873 -91.5625 396.8125 C-101.95907697 392.93347886 -111.80469249 388.20697744 -121.68554688 383.17578125 C-123.25237576 382.37980573 -124.82146296 381.58826265 -126.39257812 380.80078125 C-146.88839649 370.51230235 -166.40355417 358.42178264 -185 345 C-185.86310791 344.4332959 -186.72621582 343.8665918 -187.61547852 343.28271484 C-193.00139208 338.12675172 -191.88644933 327.75462815 -192.10131836 320.64984131 C-192.26839628 312.73272335 -192.28649566 304.8179676 -192.26074219 296.8996582 C-192.24938177 293.40044739 -192.25609209 289.90154204 -192.26763153 286.40234184 C-192.36831178 250.33212236 -192.36831178 250.33212236 -189.49093628 238.99407959 C-188.87031568 236.47324967 -188.6656651 233.945033 -188.42398071 231.36476135 C-187.41210943 220.70822471 -185.45671213 210.33569086 -183.22363281 199.87475586 C-182.6209188 197.04332734 -182.03626962 194.20856319 -181.453125 191.37304688 C-179.72917394 183.12044101 -177.97966567 175.12262969 -174.84790039 167.26806641 C-173.74019545 164.30504341 -173.1393456 161.32220996 -172.51025391 158.22900391 C-171.5670679 154.10877029 -170.1102977 150.16239774 -168.6875 146.1875 C-168.22174561 144.87265625 -168.22174561 144.87265625 -167.74658203 143.53125 C-165.38269612 136.92164437 -162.789724 130.44138931 -160 124 C-159.18593393 122.02147697 -158.37346912 120.04229444 -157.5625 118.0625 C-152.57373038 106.11734043 -146.88277253 94.52406881 -141 83 C-140.61295898 82.23848633 -140.22591797 81.47697266 -139.82714844 80.69238281 C-134.43272782 70.11688025 -128.71629974 59.88747291 -122.22802734 49.94384766 C-120.97920001 47.96707564 -119.82396142 45.95459277 -118.67578125 43.91796875 C-112.88685213 33.95680581 -106.74582862 29.76856235 -96 26 C-94.49206513 25.4308431 -92.98559141 24.85780262 -91.48046875 24.28125 C-87.480964 22.76419648 -83.45955423 21.31622095 -79.43066406 19.87939453 C-77.04503793 19.01629436 -74.67387734 18.12199277 -72.3046875 17.21484375 C-56.58693212 11.22181361 -40.48598433 6.39417324 -24 3 C-23.35160156 2.86464844 -22.70320312 2.72929687 -22.03515625 2.58984375 C-14.62284624 1.05769028 -7.58952312 -0.17689233 0 0 Z " fill="#FEFEFE" transform="translate(438,310)"/>
<path d="M0 0 C9.59564476 7.05521507 15.2293921 15.79101106 19 27 C19.35707031 28.04027344 19.71414063 29.08054687 20.08203125 30.15234375 C23.66868405 45.18576081 21.83184111 62.27076791 13.9453125 75.625 C5.80717469 88.45036118 -5.14478362 96.43215327 -20 100 C-33.05207754 101.3670864 -43.27056729 98.24090354 -53.90625 90.7265625 C-65.68949966 81.00977826 -73.25009055 66.72019383 -75.32666016 51.62548828 C-76.60537561 36.10932833 -72.45973418 21.7117294 -62.9296875 9.3046875 C-46.53506156 -9.83189679 -20.90516299 -14.66631772 0 0 Z " fill="#5966F2" transform="translate(628,489)"/>
<path d="M0 0 C0.79414307 0.01272949 1.58828613 0.02545898 2.40649414 0.03857422 C16.86511489 0.39829317 27.36743387 5.45590137 37.4765625 16.04296875 C45.84180189 26.00351216 50.48539805 38.76152376 50.3125 51.6875 C50.30126099 52.80547974 50.30126099 52.80547974 50.28979492 53.94604492 C50.02084786 67.76451488 45.63031041 80.36131787 37.0625 91.3125 C36.53527344 91.98925781 36.00804687 92.66601562 35.46484375 93.36328125 C28.5436353 101.19717653 16.51740998 107.72648259 6.03125 108.55078125 C-6.8193995 108.82573884 -17.95744385 105.68757636 -27.9375 97.3125 C-39.79179037 84.94243808 -45.86987737 70.4785601 -46.3125 53.3125 C-45.88195106 37.89884801 -41.48351748 24.38269474 -30.5 13.3125 C-21.48203248 4.8365961 -12.56189343 -0.29714868 0 0 Z " fill="#5966F2" transform="translate(421.9375,480.6875)"/>
</svg>
