<?xml version="1.0" encoding="UTF-8"?>
<svg version="1.1" xmlns="http://www.w3.org/2000/svg" width="980" height="980">
<path d="M0 0 C4.02004445 0.00020604 8.04008196 -0.00533399 12.06012309 -0.01005757 C19.91836641 -0.01832213 27.77660222 -0.02111053 35.63484953 -0.02166995 C42.03297836 -0.02214725 48.43110475 -0.02421265 54.82923281 -0.02737057 C73.02532775 -0.03616689 91.22141681 -0.04079173 109.41751388 -0.0400401 C110.39604343 -0.04000014 111.37457297 -0.03996019 112.38275492 -0.03991902 C113.85237139 -0.0398577 113.85237139 -0.0398577 115.35167708 -0.03979514 C131.20451904 -0.0393893 147.05733718 -0.04894585 162.91017226 -0.06305739 C179.24288009 -0.07747966 195.57557634 -0.08432432 211.90829068 -0.08346361 C221.05554374 -0.08313358 230.20277184 -0.08579458 239.3500191 -0.09664166 C247.14273818 -0.10582423 254.935421 -0.1078593 262.72814319 -0.10113224 C266.69102111 -0.09790519 270.65382979 -0.09766871 274.61670077 -0.10648549 C321.24181982 -0.20345327 363.40143101 2.48236246 398.63592875 35.95788372 C431.16282187 69.81566444 432.54551224 113.44148103 432.53131247 157.75945497 C432.53110643 161.77949942 432.53664646 165.79953693 432.54137003 169.81957805 C432.54963459 177.67782137 432.552423 185.53605719 432.55298241 193.39430449 C432.55345972 199.79243333 432.55552512 206.19055972 432.55868304 212.58868778 C432.56747935 230.78478271 432.5721042 248.98087178 432.57135256 267.17696885 C432.57129263 268.64476316 432.57129263 268.64476316 432.57123148 270.14220989 C432.57117016 271.61182636 432.57117016 271.61182636 432.5711076 273.11113205 C432.57070176 288.96397401 432.58025831 304.81679215 432.59436985 320.66962723 C432.60879212 337.00233505 432.61563679 353.33503131 432.61477607 369.66774565 C432.61444604 378.8149987 432.61710704 387.9622268 432.62795413 397.10947406 C432.63713669 404.90219314 432.63917176 412.69487596 432.6324447 420.48759816 C432.62921765 424.45047607 432.62898117 428.41328475 432.63779795 432.37615573 C432.66806071 446.95140129 432.55281246 461.48151316 431.51137125 476.02848613 C431.39821646 477.62688122 431.39821646 477.62688122 431.2827757 479.25756711 C429.02471656 507.06865605 418.30760296 532.66345151 399.38592875 553.14538372 C398.74268656 553.86983684 398.09944438 554.59428997 397.43671 555.34069622 C374.01575791 580.43820236 340.2213903 588.52260023 307.19728649 590.04977429 C296.39738991 590.41706014 285.57718417 590.29422953 274.7718575 590.29076743 C270.75181305 590.2905614 266.73177554 590.29610142 262.71173441 590.300825 C254.85349109 590.30908956 246.99525528 590.31187796 239.13700797 590.31243738 C232.73887914 590.31291468 226.34075275 590.31498008 219.94262469 590.318138 C201.74652975 590.32693432 183.55044069 590.33155916 165.35434362 590.33080753 C164.37581407 590.33076757 163.39728453 590.33072762 162.38910258 590.33068645 C160.91948611 590.33062513 160.91948611 590.33062513 159.42018042 590.33056257 C143.56733846 590.33015673 127.71452032 590.33971328 111.86168524 590.35382482 C95.52897741 590.36824709 79.19628116 590.37509175 62.86356682 590.37423104 C53.71631376 590.37390101 44.56908566 590.37656201 35.4218384 590.38740909 C27.62911932 590.39659166 19.8364365 590.39862673 12.04371431 590.39189967 C8.08083639 590.38867262 4.11802771 590.38843614 0.15515673 590.39725292 C-46.46996232 590.4942207 -88.62957351 587.80840497 -123.86407125 554.33288372 C-156.39096437 520.47510299 -157.77365474 476.8492864 -157.75945497 432.53131247 C-157.75924893 428.51126801 -157.76478896 424.4912305 -157.76951253 420.47118938 C-157.77777709 412.61294606 -157.7805655 404.75471025 -157.78112491 396.89646294 C-157.78160222 390.4983341 -157.78366762 384.10020771 -157.78682554 377.70207965 C-157.79562185 359.50598472 -157.8002467 341.30989566 -157.79949506 323.11379858 C-157.79945511 322.13526904 -157.79941515 321.1567395 -157.79937398 320.14855754 C-157.7993331 319.16881323 -157.79929222 318.18906892 -157.7992501 317.17963538 C-157.79884426 301.32679342 -157.80840081 285.47397528 -157.82251235 269.6211402 C-157.83693462 253.28843238 -157.84377929 236.95573612 -157.84291857 220.62302178 C-157.84258854 211.47576873 -157.84524954 202.32854063 -157.85609663 193.18129337 C-157.86527919 185.38857429 -157.86731426 177.59589147 -157.8605872 169.80316927 C-157.85736015 165.84029136 -157.85712367 161.87748268 -157.86594045 157.9146117 C-157.89619097 143.34227018 -157.78163712 128.81431187 -156.74342 114.2700938 C-156.66850715 113.20554444 -156.5935943 112.14099508 -156.51641136 111.04418665 C-153.96506439 79.55596138 -140.44421725 50.11051924 -116.61407125 29.14538372 C-83.02159927 0.71701989 -41.8856095 -0.01342043 0 0 Z " fill="#5765EC" transform="translate(352.61407124996185,194.85461628437042)"/>
<path d="M0 0 C5.07272946 5.93697225 7.94388912 13.88710476 11 21 C11.87398438 20.90912109 11.87398438 20.90912109 12.765625 20.81640625 C14.50148548 20.63899913 16.23786543 20.46663456 17.97460938 20.2980957 C19.77101583 20.12109342 21.56669293 19.93587484 23.36035156 19.73291016 C33.32206484 18.72366672 43.31290624 18.81392792 53.31445312 18.81469727 C56.46498406 18.81252415 59.61515632 18.79435452 62.765625 18.77539062 C74.25026783 18.74464508 85.49278814 19.22014599 96.90039062 20.5690918 C100.28321278 20.9615221 103.59069008 21.08604902 107 21 C107.54269531 19.81921875 108.08539062 18.6384375 108.64453125 17.421875 C109.36694222 15.86446953 110.08961208 14.30718414 110.8125 12.75 C111.16892578 11.97269531 111.52535156 11.19539063 111.89257812 10.39453125 C113.63974047 6.64374235 115.29346863 3.17611883 118 0 C124.19479722 0.66990249 130.1780299 1.79841658 136.25 3.1875 C137.21309082 3.40744629 138.17618164 3.62739258 139.16845703 3.85400391 C147.14464131 5.71899079 154.96052345 7.96300856 162.77734375 10.40234375 C166.5428268 11.57384349 170.32458352 12.65300109 174.12890625 13.69140625 C204.16428792 21.93777941 204.16428792 21.93777941 213 37 C213.43103027 37.71961914 213.86206055 38.43923828 214.30615234 39.18066406 C227.98996315 62.13869289 240.13936181 85.74882392 249.23193359 110.89355469 C249.79757388 112.44484026 250.37520609 113.99176613 250.95947266 115.53613281 C253.37338934 121.98622818 255.31487421 128.44986068 257 135.125 C257.25418701 136.11838379 257.50837402 137.11176758 257.77026367 138.13525391 C258.52167332 141.08818697 259.26289591 144.04346686 260 147 C260.31831787 148.2694043 260.31831787 148.2694043 260.64306641 149.56445312 C264.249185 164.03625965 264.249185 164.03625965 264.76728821 170.8793335 C265.00562375 173.05124832 265.44188112 175.0809168 265.95385742 177.20410156 C269.67945402 193.63094743 269.28877578 210.68062561 269.20581055 227.42236328 C269.18732995 231.28554779 269.18530314 235.14849421 269.18554688 239.01171875 C269.18063776 241.49218956 269.17481212 243.97265877 269.16796875 246.453125 C269.16685593 247.59589905 269.1657431 248.7386731 269.16459656 249.91607666 C269.09624477 261.44427799 269.09624477 261.44427799 268 267 C265.70721369 269.189423 263.90485508 270.58284402 261.25 272.1875 C260.54190186 272.64253906 259.83380371 273.09757812 259.10424805 273.56640625 C257.56267341 274.5503547 256.01303733 275.52176057 254.45654297 276.48193359 C251.95335792 278.02882334 249.47797666 279.6140578 247.00390625 281.20703125 C225.9735132 294.63179185 204.14149334 304.82661694 181 314 C179.85015625 314.47083008 178.7003125 314.94166016 177.515625 315.42675781 C171.6034056 317.80220311 166.3780328 319.6248216 160 320 C153.79813573 310.98852289 148.07229078 301.85936674 142.8125 292.265625 C141.05366983 288.99251547 141.05366983 288.99251547 139 286 C139.12109375 283.921875 139.12109375 283.921875 140 282 C141.72265625 281.015625 141.72265625 281.015625 144.0625 280.25 C148.98554113 278.46690718 153.58814958 276.30252583 158.25 273.9375 C159.25945679 273.42654785 159.25945679 273.42654785 160.28930664 272.90527344 C161.58219465 272.24916671 162.87445767 271.59182657 164.16601562 270.93310547 C166.770352 269.60805573 169.38483742 268.30352048 172 267 C172.23226189 264.73080676 172.23226189 264.73080676 169.875 262.8125 C167.16961417 260.7021632 167.16961417 260.7021632 164.2109375 261.2421875 C160.9077624 262.02176897 157.90270333 263.05840742 154.75 264.3125 C153.71359375 264.72113281 152.6771875 265.12976563 151.609375 265.55078125 C149.63139449 266.34497039 147.65488531 267.14301198 145.68579102 267.95898438 C136.01898627 271.92311712 126.14805614 274.56022344 116 277 C114.84113281 277.28230469 113.68226563 277.56460937 112.48828125 277.85546875 C80.96638995 285.25859094 46.85023261 286.07796077 15 280 C13.62405113 279.76743178 12.24776033 279.53687517 10.87109375 279.30859375 C2.40444266 277.78893843 -5.71925846 275.40959385 -13.8671875 272.70458984 C-16.1153635 271.96188884 -18.36956358 271.23986126 -20.625 270.51953125 C-28.26474057 268.05392088 -35.60837616 265.53955072 -42.73828125 261.78515625 C-45.56846903 260.80265583 -47.16311725 261.13291291 -50 262 C-52.30504044 263.33153266 -52.30504044 263.33153266 -54 265 C-54 265.66 -54 266.32 -54 267 C-37.84719329 275.7388468 -37.84719329 275.7388468 -21 283 C-21.71543398 287.03061397 -23.6431306 290.43668438 -25.5625 294 C-25.91602539 294.65991943 -26.26955078 295.31983887 -26.63378906 295.99975586 C-30.04893299 302.26915691 -33.93424564 308.13198898 -38 314 C-39.3406458 315.99523068 -40.67067497 317.9971895 -42 320 C-47.80396132 319.45343862 -52.7944634 318.2690584 -58.25 316.25 C-58.92417969 316.01023437 -59.59835937 315.77046875 -60.29296875 315.5234375 C-88.82924774 305.21424174 -115.88615285 290.85297975 -140.74755859 273.53271484 C-142.17813331 272.55925418 -143.63799778 271.62655571 -145.13134766 270.75244141 C-147.05078125 269.58203125 -147.05078125 269.58203125 -150 267 C-151.32524964 260.30582731 -151.17732636 253.50306008 -151.203125 246.69921875 C-151.20882507 245.50939896 -151.21452515 244.31957916 -151.22039795 243.09370422 C-151.22982397 240.57134887 -151.23637237 238.04898134 -151.24023438 235.52661133 C-151.24980146 231.76555052 -151.28078938 228.00507016 -151.3125 224.24414062 C-151.40806065 202.70933964 -149.99510736 181.33025908 -145.0625 160.3125 C-144.79872559 159.14299805 -144.53495117 157.97349609 -144.26318359 156.76855469 C-143.52277314 153.50893731 -142.76257706 150.25448383 -142 147 C-141.66669234 145.50939942 -141.33447035 144.01855515 -141.00390625 142.52734375 C-137.23447285 126.32715665 -131.83633742 110.15967478 -125 95 C-124.37145842 93.55118757 -123.74395062 92.10192644 -123.1171875 90.65234375 C-115.56459102 73.34626745 -107.01284719 56.59268501 -97.125 40.5 C-96.60196289 39.64607666 -96.07892578 38.79215332 -95.54003906 37.91235352 C-86.91817471 24.16215589 -86.91817471 24.16215589 -78.5625 20.875 C-77.95398193 20.63330078 -77.34546387 20.39160156 -76.71850586 20.14257812 C-74.82117743 19.40182533 -72.91398811 18.69644599 -71 18 C-69.865625 17.57976562 -68.73125 17.15953125 -67.5625 16.7265625 C-57.11409006 13.06495455 -46.39933927 10.41058762 -35.67773438 7.68457031 C-32.02839228 6.75160576 -28.38891806 5.7853536 -24.75 4.8125 C-23.00976562 4.35037109 -23.00976562 4.35037109 -21.234375 3.87890625 C-19.11419386 3.30277007 -16.99921443 2.70705649 -14.890625 2.08984375 C-4.10031576 -1.04517853 -4.10031576 -1.04517853 0 0 Z " fill="#FEFEFE" transform="translate(431,330)"/>
<path d="M0 0 C9.32349832 6.00376786 16.42885924 14.57759714 19.5703125 25.359375 C21.85713233 39.41292233 20.06598498 53.13519628 12 65 C6.21831853 72.28148399 -1.4691482 78.87093676 -10.95410156 80.29296875 C-22.34754339 81.26815635 -31.88311378 79.5700476 -40.796875 72.13671875 C-50.15218735 63.06339277 -54.97672383 52.91391544 -55.46826172 39.94091797 C-55.63819956 26.53674425 -52.27823259 15.71767305 -42.9296875 5.8046875 C-31.36166021 -5.11843234 -14.23387096 -8.66302836 0 0 Z " fill="#5866EC" transform="translate(438,468)"/>
<path d="M0 0 C9.59411189 6.790726 15.35350036 15.55952622 18 27 C19.55166151 41.62031369 17.85748869 53.97373836 8.8125 65.9375 C2.31364961 73.36785227 -5.75321203 78.30739238 -15.6640625 79.40625 C-27.61829045 79.68919031 -35.86237118 77.15030637 -44.875 68.8125 C-55.0319367 57.82604942 -57.82780528 45.6459065 -57.375 31.0390625 C-56.64575361 20.08473993 -51.03725987 10.60962063 -43.125 3.2578125 C-30.46374491 -7.00393054 -14.11965497 -8.45595045 0 0 Z " fill="#5866EC" transform="translate(579,469)"/>
</svg>
