<?xml version="1.0" encoding="UTF-8"?>
<svg version="1.1" xmlns="http://www.w3.org/2000/svg" width="512" height="512">
<path d="M0 0 C1.28048529 -0.00445784 2.56097057 -0.00891569 3.88025844 -0.01350862 C5.29398275 -0.01341933 6.70770706 -0.01322951 8.12143135 -0.01294994 C9.62900929 -0.01625133 11.13658635 -0.01997748 12.6441623 -0.02409142 C16.78409532 -0.0340885 20.92401384 -0.03782453 25.06395721 -0.04048073 C29.53046341 -0.04439065 33.99695821 -0.05396858 38.46345711 -0.0626936 C49.2494092 -0.08243962 60.03536221 -0.09252231 70.82132787 -0.10142139 C75.90484407 -0.10580774 80.98835923 -0.11117369 86.07187462 -0.11641026 C102.97831379 -0.13342144 119.88475232 -0.14791428 136.79119873 -0.155159 C141.17675846 -0.15706879 145.56231818 -0.15898914 149.94787788 -0.16094494 C151.03784353 -0.16142868 152.12780917 -0.16191242 153.25080408 -0.16241082 C170.89649658 -0.17070616 188.54212119 -0.19603522 206.18778406 -0.22852562 C224.31797158 -0.26163503 242.44812465 -0.27961131 260.57834256 -0.28280324 C270.75215054 -0.28496484 280.92585954 -0.29366219 291.09963799 -0.31926441 C299.76652544 -0.34102457 308.43328986 -0.34899579 317.10020153 -0.33929763 C321.51740284 -0.33476817 325.93435057 -0.33655975 330.35151672 -0.35605907 C334.40591811 -0.37380134 338.45988302 -0.37260454 342.51428975 -0.35716178 C343.97064923 -0.35480234 345.42703982 -0.35902149 346.88335203 -0.37099043 C371.73487559 -0.56236496 392.89228736 8.7608128 410.57483101 26.13422108 C411.18842476 26.7349242 411.80201851 27.33562733 412.43420601 27.95453358 C432.31240037 49.01812485 433.47977957 73.65213635 433.35917902 101.00133252 C433.34548534 105.60268345 433.36661565 110.20390247 433.38305855 114.80522633 C433.40961882 123.79660147 433.40402929 132.78767464 433.3865827 141.7790612 C433.37298501 149.0920987 433.37121508 156.4050521 433.3777256 163.71809864 C433.378645 164.76232472 433.3795644 165.8065508 433.38051166 166.88242009 C433.38243017 169.00431234 433.38437546 171.12620456 433.3863472 173.24809676 C433.40342146 193.10518039 433.38383962 212.96209733 433.35154501 232.81915361 C433.32474162 249.82578946 433.32939876 266.8321795 433.35705757 283.83881092 C433.38922873 303.62898311 433.40177383 323.41900951 433.38338399 343.2092042 C433.38147287 345.32291728 433.37958664 347.43663039 433.3777256 349.55034351 C433.37679995 350.59009871 433.37587429 351.6298539 433.37492059 352.70111683 C433.36975863 359.99811374 433.3784441 367.29501752 433.39260292 374.59200001 C433.40949978 383.4950459 433.40473348 392.39777474 433.37291846 401.30078471 C433.35724184 405.83586373 433.35081525 410.37041581 433.37081337 414.90548992 C433.48676066 443.6253598 430.28369501 467.19556853 409.32483101 488.48578358 C386.42723842 510.53772644 362.92823913 513.05183119 332.70771956 512.91856909 C328.10636863 512.90487541 323.50514962 512.92600572 318.90382576 512.94244862 C309.91245062 512.96900889 300.92137744 512.96341936 291.92999089 512.94597277 C284.61695338 512.93237508 277.30399999 512.93060515 269.99095345 512.93711567 C268.94672737 512.93803507 267.90250129 512.93895447 266.82663199 512.93990172 C264.70473975 512.94182024 262.58284752 512.94376553 260.46095532 512.94573727 C240.60387169 512.96281153 220.74695476 512.94322969 200.88989848 512.91093507 C183.88326263 512.88413169 166.87687258 512.88878883 149.87024117 512.91644764 C130.08006898 512.9486188 110.29004258 512.9611639 90.49984789 512.94277406 C88.38613481 512.94086294 86.2724217 512.93897671 84.15870857 512.93711567 C82.59907578 512.93572719 82.59907578 512.93572719 81.00793526 512.93431066 C73.71093834 512.9291487 66.41403456 512.93783417 59.11705208 512.95199299 C50.21400619 512.96888985 41.31127734 512.96412355 32.40826738 512.93230852 C27.87318836 512.9166319 23.33863627 512.91020532 18.80356216 512.93020344 C-9.91630772 513.04615073 -33.48651645 509.84308507 -54.77673149 488.88422108 C-69.04203376 474.07187182 -79.5254101 454.68152084 -79.55939007 433.70905209 C-79.56384791 432.4285668 -79.56830576 431.14808151 -79.57289869 429.82879364 C-79.5728094 428.41506933 -79.57261957 427.00134502 -79.57234001 425.58762074 C-79.5756414 424.08004279 -79.57936754 422.57246573 -79.58348149 421.06488979 C-79.59347857 416.92495677 -79.59721459 412.78503825 -79.5998708 408.64509487 C-79.60378072 404.17858867 -79.61335864 399.71209388 -79.62208366 395.24559498 C-79.64182969 384.45964288 -79.65191238 373.67368987 -79.66081145 362.88772422 C-79.66519781 357.80420802 -79.67056376 352.72069285 -79.67580032 347.63717747 C-79.69281151 330.7307383 -79.70730435 313.82429977 -79.71454906 296.91785336 C-79.71645886 292.53229363 -79.7183792 288.14673391 -79.72033501 283.7611742 C-79.72081875 282.67120856 -79.72130249 281.58124291 -79.72180089 280.458248 C-79.73009623 262.8125555 -79.75542529 245.1669309 -79.78791568 227.52126803 C-79.8210251 209.3910805 -79.83900137 191.26092744 -79.84219331 173.13070953 C-79.84435491 162.95690155 -79.85305226 152.78319255 -79.87865448 142.6094141 C-79.90041464 133.94252665 -79.90838586 125.27576223 -79.8986877 116.60885055 C-79.89415823 112.19164925 -79.89594982 107.77470151 -79.91544914 103.35753536 C-79.93319141 99.30313398 -79.93199461 95.24916907 -79.91655185 91.19476233 C-79.91419241 89.73840286 -79.91841156 88.28201226 -79.9303805 86.82570006 C-80.12175503 61.9741765 -70.79857727 40.81676473 -53.42516899 23.13422108 C-52.82446587 22.52062733 -52.22376274 21.90703358 -51.60485649 21.27484608 C-38.11109906 8.54047759 -18.60680924 0.03014708 0 0 Z " fill="#1DD55F" transform="translate(79.42516899108887,-0.13422107696533203)"/>
<path d="M0 0 C1.28048529 -0.00445784 2.56097057 -0.00891569 3.88025844 -0.01350862 C5.29398275 -0.01341933 6.70770706 -0.01322951 8.12143135 -0.01294994 C9.62900929 -0.01625133 11.13658635 -0.01997748 12.6441623 -0.02409142 C16.78409532 -0.0340885 20.92401384 -0.03782453 25.06395721 -0.04048073 C29.53046341 -0.04439065 33.99695821 -0.05396858 38.46345711 -0.0626936 C49.2494092 -0.08243962 60.03536221 -0.09252231 70.82132787 -0.10142139 C75.90484407 -0.10580774 80.98835923 -0.11117369 86.07187462 -0.11641026 C102.97831379 -0.13342144 119.88475232 -0.14791428 136.79119873 -0.155159 C141.17675846 -0.15706879 145.56231818 -0.15898914 149.94787788 -0.16094494 C151.03784353 -0.16142868 152.12780917 -0.16191242 153.25080408 -0.16241082 C170.89649658 -0.17070616 188.54212119 -0.19603522 206.18778406 -0.22852562 C224.31797158 -0.26163503 242.44812465 -0.27961131 260.57834256 -0.28280324 C270.75215054 -0.28496484 280.92585954 -0.29366219 291.09963799 -0.31926441 C299.76652544 -0.34102457 308.43328986 -0.34899579 317.10020153 -0.33929763 C321.51740284 -0.33476817 325.93435057 -0.33655975 330.35151672 -0.35605907 C334.40591811 -0.37380134 338.45988302 -0.37260454 342.51428975 -0.35716178 C343.97064923 -0.35480234 345.42703982 -0.35902149 346.88335203 -0.37099043 C371.73487559 -0.56236496 392.89228736 8.7608128 410.57483101 26.13422108 C411.18842476 26.7349242 411.80201851 27.33562733 412.43420601 27.95453358 C432.31240037 49.01812485 433.47977957 73.65213635 433.35917902 101.00133252 C433.34548534 105.60268345 433.36661565 110.20390247 433.38305855 114.80522633 C433.40961882 123.79660147 433.40402929 132.78767464 433.3865827 141.7790612 C433.37298501 149.0920987 433.37121508 156.4050521 433.3777256 163.71809864 C433.378645 164.76232472 433.3795644 165.8065508 433.38051166 166.88242009 C433.38243017 169.00431234 433.38437546 171.12620456 433.3863472 173.24809676 C433.40342146 193.10518039 433.38383962 212.96209733 433.35154501 232.81915361 C433.32474162 249.82578946 433.32939876 266.8321795 433.35705757 283.83881092 C433.38922873 303.62898311 433.40177383 323.41900951 433.38338399 343.2092042 C433.38147287 345.32291728 433.37958664 347.43663039 433.3777256 349.55034351 C433.37679995 350.59009871 433.37587429 351.6298539 433.37492059 352.70111683 C433.36975863 359.99811374 433.3784441 367.29501752 433.39260292 374.59200001 C433.40949978 383.4950459 433.40473348 392.39777474 433.37291846 401.30078471 C433.35724184 405.83586373 433.35081525 410.37041581 433.37081337 414.90548992 C433.48676066 443.6253598 430.28369501 467.19556853 409.32483101 488.48578358 C386.42723842 510.53772644 362.92823913 513.05183119 332.70771956 512.91856909 C328.10636863 512.90487541 323.50514962 512.92600572 318.90382576 512.94244862 C309.91245062 512.96900889 300.92137744 512.96341936 291.92999089 512.94597277 C284.61695338 512.93237508 277.30399999 512.93060515 269.99095345 512.93711567 C268.94672737 512.93803507 267.90250129 512.93895447 266.82663199 512.93990172 C264.70473975 512.94182024 262.58284752 512.94376553 260.46095532 512.94573727 C240.60387169 512.96281153 220.74695476 512.94322969 200.88989848 512.91093507 C183.88326263 512.88413169 166.87687258 512.88878883 149.87024117 512.91644764 C130.08006898 512.9486188 110.29004258 512.9611639 90.49984789 512.94277406 C88.38613481 512.94086294 86.2724217 512.93897671 84.15870857 512.93711567 C82.59907578 512.93572719 82.59907578 512.93572719 81.00793526 512.93431066 C73.71093834 512.9291487 66.41403456 512.93783417 59.11705208 512.95199299 C50.21400619 512.96888985 41.31127734 512.96412355 32.40826738 512.93230852 C27.87318836 512.9166319 23.33863627 512.91020532 18.80356216 512.93020344 C-9.91630772 513.04615073 -33.48651645 509.84308507 -54.77673149 488.88422108 C-69.04203376 474.07187182 -79.5254101 454.68152084 -79.55939007 433.70905209 C-79.56384791 432.4285668 -79.56830576 431.14808151 -79.57289869 429.82879364 C-79.5728094 428.41506933 -79.57261957 427.00134502 -79.57234001 425.58762074 C-79.5756414 424.08004279 -79.57936754 422.57246573 -79.58348149 421.06488979 C-79.59347857 416.92495677 -79.59721459 412.78503825 -79.5998708 408.64509487 C-79.60378072 404.17858867 -79.61335864 399.71209388 -79.62208366 395.24559498 C-79.64182969 384.45964288 -79.65191238 373.67368987 -79.66081145 362.88772422 C-79.66519781 357.80420802 -79.67056376 352.72069285 -79.67580032 347.63717747 C-79.69281151 330.7307383 -79.70730435 313.82429977 -79.71454906 296.91785336 C-79.71645886 292.53229363 -79.7183792 288.14673391 -79.72033501 283.7611742 C-79.72081875 282.67120856 -79.72130249 281.58124291 -79.72180089 280.458248 C-79.73009623 262.8125555 -79.75542529 245.1669309 -79.78791568 227.52126803 C-79.8210251 209.3910805 -79.83900137 191.26092744 -79.84219331 173.13070953 C-79.84435491 162.95690155 -79.85305226 152.78319255 -79.87865448 142.6094141 C-79.90041464 133.94252665 -79.90838586 125.27576223 -79.8986877 116.60885055 C-79.89415823 112.19164925 -79.89594982 107.77470151 -79.91544914 103.35753536 C-79.93319141 99.30313398 -79.93199461 95.24916907 -79.91655185 91.19476233 C-79.91419241 89.73840286 -79.91841156 88.28201226 -79.9303805 86.82570006 C-80.12175503 61.9741765 -70.79857727 40.81676473 -53.42516899 23.13422108 C-52.82446587 22.52062733 -52.22376274 21.90703358 -51.60485649 21.27484608 C-38.11109906 8.54047759 -18.60680924 0.03014708 0 0 Z M133.57483101 58.13422108 C132.7325898 58.31614002 131.89034859 58.49805897 131.02258492 58.68549061 C78.68149275 70.31338065 33.23854987 104.20247382 4.57483101 149.13422108 C1.36679141 154.35666932 -1.58612821 159.70367399 -4.42516899 165.13422108 C-5.0297393 166.28793201 -5.63430962 167.44164295 -6.25720024 168.63031483 C-15.8588852 188.07210129 -21.03659128 208.80738463 -24.42516899 230.13422108 C-24.6275518 231.39105701 -24.82993462 232.64789295 -25.03845024 233.94281483 C-25.77484368 240.32489128 -25.66882049 246.78080926 -25.67516899 253.19672108 C-25.67617607 253.9033086 -25.67718315 254.60989613 -25.67822075 255.33789539 C-25.649413 285.37844877 -20.00853962 315.21233553 -6.42516899 342.13422108 C-5.81729546 343.35963612 -5.81729546 343.35963612 -5.19714165 344.60980701 C0.55451185 356.16437271 6.61278159 366.96849301 14.57483101 377.13422108 C15.0511396 377.75571033 15.5274482 378.37719959 16.01819038 379.01752186 C28.016316 394.62827844 41.57525527 408.61217233 57.57483101 420.13422108 C58.13396187 420.54301502 58.69309273 420.95180897 59.26916695 421.37299061 C81.9849762 437.82079862 108.76279563 449.83820075 136.42199898 454.74457264 C138.57767849 455.13473645 140.71625713 455.58190818 142.85998726 456.03265858 C165.41858499 460.41714959 191.16608929 460.14217517 213.57483101 455.13422108 C215.09649368 454.82718131 216.61864566 454.52255817 218.14123726 454.22015858 C233.81009533 451.02165736 248.26884087 446.33794661 262.57483101 439.13422108 C263.37582222 438.73960682 264.17681343 438.34499256 265.0020771 437.9384203 C283.32620033 428.88541024 299.54333557 417.9912465 314.57483101 404.13422108 C315.15329781 403.6010326 315.7317646 403.06784412 316.3277607 402.51849842 C325.91005685 393.56779874 333.94056137 383.77470543 341.57483101 373.13422108 C342.02310249 372.5199828 342.47137398 371.90574451 342.93322945 371.27289295 C353.45110462 356.76602803 361.95196135 340.14142193 367.57483101 323.13422108 C367.81008492 322.44280018 368.04533882 321.75137928 368.28772163 321.03900623 C372.91001342 307.30962943 375.60087233 293.47054824 377.57483101 279.13422108 C377.67868111 278.4154076 377.7825312 277.69659412 377.88952827 276.95599842 C380.62354758 255.87624199 379.05096702 233.81566131 374.57483101 213.13422108 C374.39291206 212.28617908 374.21099312 211.43813709 374.02356148 210.56439686 C368.44272382 185.46309577 357.7979062 160.90368801 342.57483101 140.13422108 C341.80654976 139.08234608 341.03826851 138.03047108 340.24670601 136.94672108 C334.89895482 129.75755736 329.12691086 123.04347847 322.9395771 116.56634998 C321.62534634 115.18723055 320.3282244 113.79186895 319.03186226 112.39593983 C311.294189 104.30708624 302.62289589 97.68467585 293.57483101 91.13422108 C292.64694771 90.45528797 292.64694771 90.45528797 291.70031929 89.76263905 C277.19349889 79.24808287 260.57478218 70.76769436 243.57483101 65.13422108 C242.90999702 64.90428455 242.24516304 64.67434803 241.56018257 64.43744373 C206.83346224 52.54018361 169.42999752 50.18744678 133.57483101 58.13422108 Z " fill="#191414" transform="translate(79.42516899108887,-0.13422107696533203)"/>
<path d="M0 0 C1.19245331 -0.00045319 2.38490662 -0.00090637 3.61349487 -0.00137329 C19.59050845 0.01634623 35.41788123 0.53031611 51.3125 2.1875 C52.11377319 2.27018127 52.91504639 2.35286255 53.74060059 2.43804932 C63.56906496 3.48414698 73.11219496 5.14690915 82.75 7.375 C84.81983036 7.81866161 86.89013497 8.26011714 88.9609375 8.69921875 C107.44414539 12.74242048 125.24895839 18.17366728 142.75 25.375 C143.42869141 25.6529541 144.10738281 25.9309082 144.80664062 26.21728516 C174.90312799 38.68125599 174.90312799 38.68125599 180.75 50.375 C181.54007952 57.07938907 181.1928585 62.17619704 177.18359375 67.71875 C172.89162272 72.67732144 168.82197149 74.54967971 162.375 75.125 C154.53416513 75.07313119 149.10561087 71.75988386 142.3828125 68.00219727 C124.34289859 58.01649597 104.76153726 51.98640322 84.75 47.375 C83.22783368 47.00533557 81.70569666 46.63555043 80.18359375 46.265625 C55.31903078 40.44487456 30.27096224 38.70845012 4.81591797 38.92547607 C2.12884477 38.9416031 -0.55788623 38.93134453 -3.24497032 38.92173195 C-29.35801405 37.65618605 -29.35801405 37.65618605 -54.25 43.375 C-55.89198158 43.64916026 -57.53892302 43.89378303 -59.1875 44.125 C-65.76560927 45.16029565 -72.09556687 46.85711406 -78.48608398 48.69824219 C-84.01643214 50.23838286 -89.15566116 51.46259032 -94.76171875 49.4921875 C-100.79838336 46.04576139 -104.00146849 43.12059454 -106.25 36.375 C-106.73514482 30.86343667 -107.01737316 25.99828938 -104.625 20.9375 C-83.52728349 -1.82582571 -28.7618122 -0.04268183 0 0 Z " fill="#191614" transform="translate(223.25,160.625)"/>
<path d="M0 0 C1.8284848 0.00081573 1.8284848 0.00081573 3.69390869 0.00164795 C43.07313573 0.08239736 82.53382032 5.3973894 118.5 22.375 C119.43956543 22.80981689 120.37913086 23.24463379 121.34716797 23.69262695 C153.14533202 38.42921871 153.14533202 38.42921871 156.5 47.375 C157.1149516 53.31953209 155.99461191 57.05004814 152.8125 62 C148.97927945 65.9368211 145.19556781 67.21487292 139.77734375 67.7265625 C134.78992287 67.63993948 131.4593221 65.51592753 127.3125 62.9375 C102.76423893 48.58038596 75.40807163 40.2310327 47.5 35.375 C46.61779785 35.21128906 45.7355957 35.04757812 44.82666016 34.87890625 C9.20113948 28.4510397 -32.8643721 29.43781821 -67.2578125 41.45703125 C-72.4223824 42.91928899 -76.19232649 42.93865238 -81.125 40.8125 C-84.91761406 38.35543401 -87.704626 35.56155795 -89.5 31.375 C-90.40983385 26.33898986 -90.10674281 22.58848563 -87.8125 18 C-83.45242673 13.05072764 -79.32062029 10.61455912 -73 8.875 C-72.266604 8.66705811 -71.53320801 8.45911621 -70.77758789 8.24487305 C-64.88307043 6.63156536 -58.9364052 5.3465805 -52.9375 4.1875 C-51.73673828 3.95546875 -51.73673828 3.95546875 -50.51171875 3.71875 C-47.84639072 3.23067241 -45.17674441 2.79606092 -42.5 2.375 C-41.4167041 2.19549805 -40.3334082 2.01599609 -39.21728516 1.83105469 C-26.19037826 -0.08401197 -13.14443461 -0.02197509 0 0 Z " fill="#191614" transform="translate(219.5,230.625)"/>
<path d="M0 0 C1.24392517 0.00005035 2.48785034 0.00010071 3.76947021 0.00015259 C16.79163637 0.02451616 29.5912013 0.11020578 42.4375 2.4375 C43.43080322 2.60354736 44.42410645 2.76959473 45.44750977 2.94067383 C69.85933525 7.19417153 109.80238005 15.99016506 126.4375 36.4375 C127.53909961 41.34609824 126.91753004 45.47743992 124.6875 49.9375 C122.15283262 52.75379709 120.19437108 54.08073486 116.48022461 54.83496094 C109.24430436 55.13762662 104.1681726 52.18890491 98 48.6875 C90.94476055 44.77883189 84.0272735 41.19301805 76.4375 38.4375 C75.62176514 38.14133789 74.80603027 37.84517578 73.96557617 37.54003906 C60.02369158 32.62815369 46.07051269 29.46295083 31.4375 27.4375 C30.23134033 27.2631543 29.02518066 27.08880859 27.7824707 26.90917969 C22.82031101 26.29947006 17.87371537 26.22064015 12.87890625 26.1640625 C11.86879486 26.1517157 10.85868347 26.1393689 9.81796265 26.12664795 C6.54527781 26.09441277 3.27281588 26.07557562 0 26.0625 C-1.11365936 26.05760559 -2.22731873 26.05271118 -3.37472534 26.04766846 C-24.32413875 26.00962416 -44.20474368 27.92480226 -64.63671875 32.578125 C-70.31004781 33.86683268 -75.33639656 34.76368928 -80.5 31.6875 C-84.37707516 27.45796346 -85.28108228 23.64637074 -85.10546875 17.9765625 C-84.27120475 14.07532795 -82.5457329 12.25585974 -79.35449219 9.94921875 C-76.08762012 8.18037721 -73.24326201 7.57197353 -69.58984375 6.9140625 C-68.24120722 6.66558189 -66.89265722 6.41663121 -65.54418945 6.16723633 C-64.87183258 6.04595367 -64.19947571 5.92467102 -63.50674438 5.79971313 C-60.69241936 5.27540379 -57.89971115 4.65484594 -55.1015625 4.05078125 C-36.73230993 0.4450992 -18.68758359 -0.03048618 0 0 Z " fill="#191615" transform="translate(223.5625,296.5625)"/>
</svg>
